<svg width="262" height="57" viewBox="0 0 262 57" fill="none" xmlns="http://www.w3.org/2000/svg">
<path d="M15.2857 38.4285C20.6113 38.4285 24.9285 34.1113 24.9285 28.7857C24.9285 23.4601 20.6113 19.1428 15.2857 19.1428C9.96008 19.1428 5.64282 23.4601 5.64282 28.7857C5.64282 34.1113 9.96008 38.4285 15.2857 38.4285Z" fill="url(#paint0_linear_104_4069)" stroke="url(#paint1_linear_104_4069)" stroke-width="3.57143"/>
<path d="M0.00261579 31.0715C0.000871931 31.1903 0 31.3093 0 31.4286C0 44.644 10.7132 55.3572 23.9286 55.3572C37.1439 55.3572 47.8571 44.644 47.8571 31.4286C47.8571 31.3093 47.8563 31.1903 47.8545 31.0715H0.00261579Z" fill="url(#paint2_linear_104_4069)"/>
<path d="M35.6429 24.8571C38.0098 24.8571 39.9286 22.9383 39.9286 20.5714C39.9286 18.2044 38.0098 16.2856 35.6429 16.2856C33.276 16.2856 31.3572 18.2044 31.3572 20.5714C31.3572 22.9383 33.276 24.8571 35.6429 24.8571Z" fill="url(#paint3_linear_104_4069)" stroke="white" stroke-width="2.14286"/>
<path d="M27.7857 10.5714C30.1526 10.5714 32.0714 8.65264 32.0714 6.28571C32.0714 3.91878 30.1526 2 27.7857 2C25.4188 2 23.5 3.91878 23.5 6.28571C23.5 8.65264 25.4188 10.5714 27.7857 10.5714Z" fill="url(#paint4_linear_104_4069)" stroke="white" stroke-width="2.14286"/>
<path d="M67.125 36.2789C67.125 36.2373 67.375 35.9925 67.875 35.5446C68.375 35.0966 68.9531 34.6904 69.6094 34.3258C70.276 33.9508 70.9323 33.7633 71.5781 33.7633C72.0885 33.7633 72.5677 33.805 73.0156 33.8883C73.4635 33.9716 73.8125 34.0602 74.0625 34.1539C74.3229 34.2477 74.4844 34.305 74.5469 34.3258L74.2969 40.4821H71.4219L70.9375 37.7633C70.3854 37.7633 69.849 37.8987 69.3281 38.1696C68.8177 38.43 68.3802 38.7216 68.0156 39.0446C67.6615 39.3571 67.4844 39.5237 67.4844 39.5446V47.9977L70.6875 48.7946V51.3571H60.125V48.7946L62.6875 47.9977V37.5914L60.125 36.7946V34.2321L66.8438 34.0758L67.125 36.2789ZM80.8281 43.7789C80.9115 45.0602 81.2969 46.0602 81.9844 46.7789C82.6823 47.4873 83.5885 47.8414 84.7031 47.8414C85.4948 47.8414 86.2865 47.7321 87.0781 47.5133C87.8802 47.2841 88.5417 47.055 89.0625 46.8258C89.5938 46.5862 89.9323 46.4196 90.0781 46.3258L91.4531 48.9821C91.4531 49.0237 91.0781 49.2893 90.3281 49.7789C89.5885 50.2581 88.6771 50.6956 87.5938 51.0914C86.5208 51.4768 85.375 51.6696 84.1562 51.6696C81.4479 51.6696 79.3854 50.9196 77.9688 49.4196C76.5521 47.9196 75.8438 45.7946 75.8438 43.0446C75.8438 41.1904 76.1823 39.5654 76.8594 38.1696C77.5469 36.7633 78.5312 35.68 79.8125 34.9196C81.0938 34.1487 82.6146 33.7633 84.375 33.7633C86.7188 33.7633 88.5156 34.4352 89.7656 35.7789C91.0156 37.1227 91.6406 38.956 91.6406 41.2789C91.6406 41.7893 91.6146 42.2841 91.5625 42.7633C91.5104 43.2425 91.474 43.5446 91.4531 43.6696L80.8281 43.7789ZM84.0625 37.5914C83.1875 37.5914 82.474 37.8883 81.9219 38.4821C81.3698 39.0654 81.026 39.8362 80.8906 40.7946H86.6875C86.6875 39.8362 86.474 39.0654 86.0469 38.4821C85.6198 37.8883 84.9583 37.5914 84.0625 37.5914ZM97.1406 47.8414C97.1406 47.8623 97.4219 47.9196 97.9844 48.0133C98.5469 48.1071 99.1615 48.1539 99.8281 48.1539C101.578 48.1539 102.448 47.6331 102.438 46.5914C102.438 46.1227 102.193 45.7425 101.703 45.4508C101.214 45.1591 100.438 44.8362 99.375 44.4821C98.2396 44.0966 97.3073 43.7216 96.5781 43.3571C95.8594 42.9925 95.2344 42.4768 94.7031 41.8102C94.1719 41.1331 93.9062 40.2737 93.9062 39.2321C93.9062 37.3571 94.5312 35.9768 95.7812 35.0914C97.0417 34.206 98.6146 33.7633 100.5 33.7633C101.354 33.7633 102.219 33.831 103.094 33.9664C103.979 34.1018 104.719 34.2529 105.312 34.4196C105.917 34.5758 106.292 34.6748 106.438 34.7164L106.312 39.5133H103.594L103.125 37.5914C103.125 37.5706 102.885 37.5133 102.406 37.4196C101.938 37.3258 101.438 37.2789 100.906 37.2789C100.198 37.2789 99.651 37.4196 99.2656 37.7008C98.8906 37.9716 98.7031 38.3727 98.7031 38.9039C98.7031 39.3727 98.9479 39.7477 99.4375 40.0289C99.9271 40.3102 100.703 40.6071 101.766 40.9196C102.901 41.2841 103.833 41.6331 104.562 41.9664C105.302 42.2998 105.932 42.7893 106.453 43.4352C106.984 44.0706 107.25 44.8987 107.25 45.9196C107.25 47.7321 106.583 49.1435 105.25 50.1539C103.917 51.1643 102.13 51.6696 99.8906 51.6696C98.9948 51.6696 98.1094 51.6175 97.2344 51.5133C96.3594 51.4091 95.6354 51.305 95.0625 51.2008C94.5 51.0966 94.1458 51.0185 94 50.9664V45.7633H96.875L97.1406 47.8414ZM116.562 51.6696C114.833 51.6696 113.609 51.1331 112.891 50.0602C112.182 48.9873 111.828 47.4456 111.828 45.4352V38.0758H108.859V34.9664L111.828 34.5602V30.1383L116.625 29.2789V34.5602H121.109V38.0758H116.625V45.1227C116.625 46.1852 116.74 46.93 116.969 47.3571C117.208 47.7841 117.661 47.9977 118.328 47.9977C118.714 47.9977 119.161 47.9143 119.672 47.7477C120.182 47.5706 120.578 47.4091 120.859 47.2633L122 49.7008C120.208 51.0237 118.396 51.68 116.562 51.6696ZM132.078 33.7633C134.651 33.7633 136.635 34.5133 138.031 36.0133C139.438 37.5133 140.141 39.6435 140.141 42.4039C140.141 44.2998 139.786 45.9456 139.078 47.3414C138.38 48.7373 137.391 49.8102 136.109 50.5602C134.828 51.2998 133.323 51.6696 131.594 51.6696C126.156 51.6696 123.438 48.7373 123.438 42.8727C123.438 40.9768 123.792 39.3466 124.5 37.9821C125.219 36.6175 126.229 35.5758 127.531 34.8571C128.833 34.1279 130.349 33.7633 132.078 33.7633ZM131.906 37.5914C130.698 37.5914 129.807 37.9821 129.234 38.7633C128.672 39.5446 128.391 40.8623 128.391 42.7164C128.391 44.4873 128.656 45.7841 129.188 46.6071C129.729 47.43 130.583 47.8414 131.75 47.8414C132.927 47.8414 133.792 47.43 134.344 46.6071C134.896 45.7841 135.172 44.4352 135.172 42.5602C135.172 40.8935 134.911 39.6487 134.391 38.8258C133.87 38.0029 133.042 37.5914 131.906 37.5914ZM152.703 49.2789C152.703 49.3206 152.427 49.555 151.875 49.9821C151.323 50.4091 150.661 50.7998 149.891 51.1539C149.12 51.4977 148.328 51.6696 147.516 51.6696C145.953 51.6696 144.729 51.2373 143.844 50.3727C142.969 49.4977 142.531 48.2581 142.531 46.6539C142.531 44.8206 143.188 43.4821 144.5 42.6383C145.812 41.7946 147.724 41.3727 150.234 41.3727H152.484V39.6071C152.484 38.0446 151.661 37.2685 150.016 37.2789C149.526 37.2789 149.073 37.3154 148.656 37.3883C148.24 37.4612 147.906 37.5393 147.656 37.6227C147.417 37.6956 147.266 37.7425 147.203 37.7633L146.719 39.7789H143.844L143.625 35.0446C143.812 34.9821 144.271 34.8466 145 34.6383C145.74 34.43 146.62 34.2321 147.641 34.0446C148.672 33.8571 149.646 33.7633 150.562 33.7633C152.208 33.7633 153.516 33.9716 154.484 34.3883C155.453 34.7946 156.161 35.4612 156.609 36.3883C157.057 37.305 157.281 38.5393 157.281 40.0914V47.9977L159.688 48.5758V51.1383L153.281 51.3571L152.703 49.2789ZM147.172 46.1696C147.172 46.7946 147.333 47.2737 147.656 47.6071C147.99 47.93 148.458 48.0914 149.062 48.0914C149.573 48.0914 150.078 47.956 150.578 47.6852C151.078 47.4039 151.5 47.1175 151.844 46.8258C152.188 46.5237 152.401 46.3258 152.484 46.2321V44.0914H150.656C149.417 44.0914 148.526 44.2581 147.984 44.5914C147.443 44.9248 147.172 45.4508 147.172 46.1696ZM173.141 49.6539C172.672 50.1331 172.042 50.5914 171.25 51.0289C170.458 51.456 169.479 51.6696 168.312 51.6696C166.115 51.6696 164.469 50.9248 163.375 49.4352C162.292 47.9456 161.75 45.8466 161.75 43.1383C161.75 40.0862 162.479 37.7633 163.938 36.1696C165.396 34.5654 167.578 33.7633 170.484 33.7633C171.141 33.7633 171.943 33.8675 172.891 34.0758V30.0133L170.328 29.3727V26.8102L177.688 26.5602V47.9352L180.25 48.5758V51.1383L173.422 51.3571L173.141 49.6539ZM172.891 38.0758C172.203 37.7529 171.37 37.5914 170.391 37.5914C169.089 37.5914 168.146 38.0498 167.562 38.9664C166.99 39.8831 166.703 41.1852 166.703 42.8727C166.703 44.5185 166.948 45.7581 167.438 46.5914C167.938 47.4248 168.719 47.8414 169.781 47.8414C170.375 47.8414 170.906 47.7112 171.375 47.4508C171.844 47.18 172.214 46.8831 172.484 46.5602C172.755 46.2373 172.891 46.055 172.891 46.0133V38.0758ZM191.5 34.2321L199.891 34.0758V36.7946L198.062 37.2164L192.906 51.3571H187.625L182.578 37.3102L181.031 36.7946V34.2321L189.422 34.0758V36.7946L187.625 37.1227L190.531 46.5602L193.359 37.2164L191.5 36.7946V34.2321ZM203.141 28.7946C203.141 27.9196 203.411 27.2216 203.953 26.7008C204.495 26.18 205.141 25.9196 205.891 25.9196C207.682 25.9196 208.578 26.8779 208.578 28.7946C208.578 29.6904 208.302 30.4039 207.75 30.9352C207.208 31.456 206.589 31.7164 205.891 31.7164C205.016 31.7164 204.339 31.4664 203.859 30.9664C203.38 30.456 203.141 29.7321 203.141 28.7946ZM210.75 48.7946V51.3571H201.156V48.7946L203.719 47.9977V37.5914L201.156 36.7946V34.2321L208.516 34.0758V47.9977L210.75 48.7946ZM216.078 47.8414C216.078 47.8623 216.359 47.9196 216.922 48.0133C217.484 48.1071 218.099 48.1539 218.766 48.1539C220.516 48.1539 221.385 47.6331 221.375 46.5914C221.375 46.1227 221.13 45.7425 220.641 45.4508C220.151 45.1591 219.375 44.8362 218.312 44.4821C217.177 44.0966 216.245 43.7216 215.516 43.3571C214.797 42.9925 214.172 42.4768 213.641 41.8102C213.109 41.1331 212.844 40.2737 212.844 39.2321C212.844 37.3571 213.469 35.9768 214.719 35.0914C215.979 34.206 217.552 33.7633 219.438 33.7633C220.292 33.7633 221.156 33.831 222.031 33.9664C222.917 34.1018 223.656 34.2529 224.25 34.4196C224.854 34.5758 225.229 34.6748 225.375 34.7164L225.25 39.5133H222.531L222.062 37.5914C222.062 37.5706 221.823 37.5133 221.344 37.4196C220.875 37.3258 220.375 37.2789 219.844 37.2789C219.135 37.2789 218.589 37.4196 218.203 37.7008C217.828 37.9716 217.641 38.3727 217.641 38.9039C217.641 39.3727 217.885 39.7477 218.375 40.0289C218.865 40.3102 219.641 40.6071 220.703 40.9196C221.839 41.2841 222.771 41.6331 223.5 41.9664C224.24 42.2998 224.87 42.7893 225.391 43.4352C225.922 44.0706 226.188 44.8987 226.188 45.9196C226.188 47.7321 225.521 49.1435 224.188 50.1539C222.854 51.1643 221.068 51.6696 218.828 51.6696C217.932 51.6696 217.047 51.6175 216.172 51.5133C215.297 51.4091 214.573 51.305 214 51.2008C213.438 51.0966 213.083 51.0185 212.938 50.9664V45.7633H215.812L216.078 47.8414ZM237.078 33.7633C239.651 33.7633 241.635 34.5133 243.031 36.0133C244.438 37.5133 245.141 39.6435 245.141 42.4039C245.141 44.2998 244.786 45.9456 244.078 47.3414C243.38 48.7373 242.391 49.8102 241.109 50.5602C239.828 51.2998 238.323 51.6696 236.594 51.6696C231.156 51.6696 228.438 48.7373 228.438 42.8727C228.438 40.9768 228.792 39.3466 229.5 37.9821C230.219 36.6175 231.229 35.5758 232.531 34.8571C233.833 34.1279 235.349 33.7633 237.078 33.7633ZM236.906 37.5914C235.698 37.5914 234.807 37.9821 234.234 38.7633C233.672 39.5446 233.391 40.8623 233.391 42.7164C233.391 44.4873 233.656 45.7841 234.188 46.6071C234.729 47.43 235.583 47.8414 236.75 47.8414C237.927 47.8414 238.792 47.43 239.344 46.6071C239.896 45.7841 240.172 44.4352 240.172 42.5602C240.172 40.8935 239.911 39.6487 239.391 38.8258C238.87 38.0029 238.042 37.5914 236.906 37.5914ZM254.375 36.2789C254.375 36.2373 254.625 35.9925 255.125 35.5446C255.625 35.0966 256.203 34.6904 256.859 34.3258C257.526 33.9508 258.182 33.7633 258.828 33.7633C259.339 33.7633 259.818 33.805 260.266 33.8883C260.714 33.9716 261.062 34.0602 261.312 34.1539C261.573 34.2477 261.734 34.305 261.797 34.3258L261.547 40.4821H258.672L258.188 37.7633C257.635 37.7633 257.099 37.8987 256.578 38.1696C256.068 38.43 255.63 38.7216 255.266 39.0446C254.911 39.3571 254.734 39.5237 254.734 39.5446V47.9977L257.938 48.7946V51.3571H247.375V48.7946L249.938 47.9977V37.5914L247.375 36.7946V34.2321L254.094 34.0758L254.375 36.2789Z" fill="white"/>
<defs>
<linearGradient id="paint0_linear_104_4069" x1="8.23344" y1="19.1428" x2="22.1464" y2="23.026" gradientUnits="userSpaceOnUse">
<stop stop-color="white"/>
<stop offset="1" stop-color="white"/>
</linearGradient>
<linearGradient id="paint1_linear_104_4069" x1="7.42859" y1="20.5714" x2="22.4286" y2="38.0714" gradientUnits="userSpaceOnUse">
<stop stop-color="white"/>
<stop offset="1" stop-color="white"/>
</linearGradient>
<linearGradient id="paint2_linear_104_4069" x1="6.42857" y1="31.0715" x2="35" y2="46.7857" gradientUnits="userSpaceOnUse">
<stop stop-color="white"/>
<stop offset="1" stop-color="white"/>
</linearGradient>
<linearGradient id="paint3_linear_104_4069" x1="32.5086" y1="16.2856" x2="38.6921" y2="18.0115" gradientUnits="userSpaceOnUse">
<stop stop-color="white"/>
<stop offset="1" stop-color="white"/>
</linearGradient>
<linearGradient id="paint4_linear_104_4069" x1="24.6514" y1="2" x2="30.8349" y2="3.72584" gradientUnits="userSpaceOnUse">
<stop stop-color="white"/>
<stop offset="1" stop-color="white"/>
</linearGradient>
</defs>
</svg>
